<svg width="54" height="50" viewBox="0 0 54 50" fill="none" xmlns="http://www.w3.org/2000/svg">
<g clip-path="url(#clip0_8_512)">
<path d="M36.5 13.4998H33.3333C33.3333 10.0007 30.4991 7.1665 27 7.1665C23.5008 7.1665 20.6666 10.0007 20.6666 13.4998H17.5C15.7583 13.4998 14.3333 14.9248 14.3333 16.6665V35.6665C14.3333 37.4082 15.7583 38.8332 17.5 38.8332H36.5C38.2416 38.8332 39.6666 37.4082 39.6666 35.6665V16.6665C39.6666 14.9248 38.2416 13.4998 36.5 13.4998ZM27 10.3332C28.7416 10.3332 30.1666 11.7582 30.1666 13.4998H23.8333C23.8333 11.7582 25.2583 10.3332 27 10.3332ZM36.5 35.6665H17.5V16.6665H20.6666V19.8332C20.6666 20.704 21.3791 21.4165 22.25 21.4165C23.1208 21.4165 23.8333 20.704 23.8333 19.8332V16.6665H30.1666V19.8332C30.1666 20.704 30.8791 21.4165 31.75 21.4165C32.6208 21.4165 33.3333 20.704 33.3333 19.8332V16.6665H36.5V35.6665Z" fill="#002F52"/>
</g>
<defs>
<clipPath id="clip0_8_512">
<rect width="38" height="38" fill="white" transform="translate(8 4)"/>
</clipPath>
</defs>
</svg>
